<svg width="24" height="24" viewBox="0 0 24 24" fill="none" xmlns="http://www.w3.org/2000/svg">
<path fill-rule="evenodd" clip-rule="evenodd" d="M11.4774 1.33709C11.8197 1.24441 12.1805 1.24441 12.5228 1.33709C12.9202 1.44468 13.2548 1.70734 13.5218 1.91697C13.5473 1.93698 13.5721 1.95651 13.5964 1.97538L20.3787 7.25051C20.4048 7.27081 20.4307 7.29092 20.4564 7.31086C20.833 7.60314 21.1648 7.86064 21.4121 8.19494C21.6291 8.48832 21.7907 8.81883 21.8891 9.17023C22.0012 9.57065 22.0007 9.99066 22.0002 10.4674C22.0002 10.4999 22.0001 10.5327 22.0001 10.5658V17.8393C22.0002 18.3664 22.0002 18.8212 21.9696 19.1957C21.9373 19.5911 21.866 19.9843 21.6732 20.3627C21.3855 20.9272 20.9266 21.3861 20.3621 21.6737C19.9837 21.8665 19.5905 21.9378 19.1952 21.9701C18.8206 22.0008 18.3658 22.0007 17.8387 22.0007H6.16157C5.63443 22.0007 5.17968 22.0008 4.80511 21.9701C4.40977 21.9378 4.01655 21.8665 3.63817 21.6737C3.07368 21.3861 2.61474 20.9272 2.32712 20.3627C2.13433 19.9843 2.06301 19.5911 2.03071 19.1957C2.00011 18.8212 2.00012 18.3664 2.00014 17.8393L2.00014 10.5658C2.00014 10.5327 2.0001 10.4999 2.00007 10.4674C1.99955 9.99066 1.9991 9.57065 2.11118 9.17023C2.20954 8.81883 2.37119 8.48832 2.58818 8.19494C2.83544 7.86064 3.16725 7.60313 3.54389 7.31085C3.56958 7.29091 3.59549 7.27081 3.62159 7.2505L10.4039 1.97538C10.4282 1.95651 10.453 1.93698 10.4785 1.91697C10.7455 1.70734 11.0801 1.44468 11.4774 1.33709ZM11.9928 3.28226C11.9177 3.33247 11.8187 3.40871 11.6318 3.55408L4.84947 8.82921C4.3514 9.2166 4.25864 9.29975 4.19615 9.38424C4.12382 9.48203 4.06994 9.5922 4.03715 9.70933C4.00883 9.81053 4.00014 9.93479 4.00014 10.5658V17.8007C4.00014 18.3773 4.00092 18.7495 4.02407 19.0329C4.04626 19.3045 4.08394 19.4053 4.10913 19.4547C4.20501 19.6429 4.35799 19.7959 4.54615 19.8917C4.59559 19.9169 4.69631 19.9546 4.96798 19.9768C5.25131 19.9999 5.62359 20.0007 6.20014 20.0007H17.8001C18.3767 20.0007 18.749 19.9999 19.0323 19.9768C19.304 19.9546 19.4047 19.9169 19.4541 19.8917C19.6423 19.7959 19.7953 19.6429 19.8911 19.4547C19.9163 19.4053 19.954 19.3045 19.9762 19.0329C19.9994 18.7495 20.0001 18.3773 20.0001 17.8007V10.5658C20.0001 9.9348 19.9915 9.81053 19.9631 9.70933C19.9303 9.5922 19.8765 9.48203 19.8041 9.38424C19.7416 9.29975 19.6489 9.2166 19.1508 8.82921L12.3685 3.55408C12.1816 3.40871 12.0826 3.33247 12.0074 3.28226C12.0049 3.28056 12.0025 3.27895 12.0001 3.27743C11.9978 3.27895 11.9954 3.28056 11.9928 3.28226ZM7.00014 17.0007C7.00014 16.4484 7.44785 16.0007 8.00014 16.0007H16.0001C16.5524 16.0007 17.0001 16.4484 17.0001 17.0007C17.0001 17.553 16.5524 18.0007 16.0001 18.0007H8.00014C7.44785 18.0007 7.00014 17.553 7.00014 17.0007Z" fill="#7D7D7D"/>
</svg>
